<svg xmlns="http://www.w3.org/2000/svg" width="20" height="20" viewBox="0 0 20 20"><path d="M10.014 3.04C8.07 3.037 6.49 4.608 6.48 6.558c-.01 1.927 1.568 3.522 3.493 3.53 1.945.005 3.533-1.555 3.54-3.478.013-1.97-1.55-3.565-3.5-3.57zM10 4.84c.956 0 1.72.764 1.72 1.72.006.96-.756 1.723-1.71 1.727-.958.002-1.728-.752-1.735-1.707-.007-.965.762-1.74 1.725-1.74zm3.367 5.21c-.088-.004-.178.004-.27.028-.193.05-.36.146-.515.266-1.557 1.047-3.688 1.02-5.238-.05-.077-.05-.157-.1-.24-.14-.432-.203-.845-.11-1.092.244-.287.413-.254.815.11 1.165.095.09.203.17.306.25.833.65 1.804.917 2.885 1.03-.077.082-.125.136-.178.188-.79.796-1.58 1.592-2.375 2.382-.164.163-.28.344-.29.584-.018.354.2.706.544.873.325.157.657.107.935-.17.622-.612 1.24-1.228 1.85-1.856.152-.156.235-.19.407-.01.593.62 1.21 1.217 1.813 1.824.157.16.334.275.564.29.36.026.727-.203.89-.553.15-.32.093-.663-.18-.938-.797-.808-1.603-1.608-2.405-2.414-.056-.056-.1-.102-.19-.2.593-.07 1.19-.178 1.734-.388.575-.223 1.095-.542 1.525-.984h-.003c.28-.29.285-.653.057-1.025-.15-.244-.383-.38-.647-.394z" fill="#fff"/></svg>