<svg xmlns="http://www.w3.org/2000/svg" viewBox="0 0 20 20" width="20" height="20"><path d="M12.457 11.982c-.436 0-.836.148-1.157.394L7.99 10.39c.017-.1.028-.204.028-.31 0-.107-.01-.21-.027-.312l3.31-1.986c.32.247.72.395 1.157.395 1.05 0 1.903-.852 1.903-1.902 0-1.05-.852-1.903-1.903-1.903-1.05 0-1.902.852-1.902 1.903 0 .106.01.21.028.31l-3.31 1.987c-.32-.247-.72-.395-1.157-.395-1.05 0-1.903.852-1.903 1.902 0 1.05.852 1.902 1.903 1.902.436 0 .836-.148 1.157-.395l3.31 1.986c-.017.1-.028.205-.028.31 0 1.052.852 1.904 1.902 1.904 1.05 0 1.903-.852 1.903-1.903 0-1.05-.852-1.902-1.903-1.902z" fill="#fff"/></svg>