<svg xmlns="http://www.w3.org/2000/svg" viewBox="0 0 20 20" width="20" height="20"><path d="M15.357 4.978c-.057-.01-.12-.006-.18.017L3.657 9.44c-.285.11-.283.512.003.618l2.807 1.048L7.553 14.6c.07.224.344.307.525.16l1.565-1.277c.164-.134.398-.14.57-.016l2.82 2.05c.196.14.47.034.52-.2L15.62 5.37c.04-.19-.092-.36-.263-.392zm-2.42 2.178c.02.006.04.02.054.037.015.018.023.04.022.063 0 .022-.01.045-.032.065l-4.528 4.21c-.08.074-.145.16-.194.255-.05.095-.082.2-.097.306l-.153 1.144c-.005.038-.022.068-.046.088-.023.02-.053.033-.083.035-.03.002-.063-.005-.09-.022-.025-.017-.046-.044-.057-.08l-.593-2.085c-.017-.06-.024-.12-.02-.18.003-.058.015-.116.036-.17.022-.056.05-.107.09-.153.037-.046.083-.086.135-.118l5.487-3.38c.024-.016.05-.02.07-.014z" fill="#fff"/></svg>