<svg xmlns="http://www.w3.org/2000/svg" width="20" height="20" viewBox="0 0 20 20"><path d="M14.63 7.88c.005.1.007.2.007.3 0 3.04-2.314 6.547-6.55 6.547-1.3 0-2.51-.38-3.527-1.033.18.02.363.032.55.032 1.078 0 2.07-.368 2.858-.985-1.007-.018-1.858-.683-2.15-1.598.14.027.284.042.432.042.21 0 .414-.028.607-.08-1.053-.21-1.846-1.142-1.846-2.257v-.03c.31.173.666.277 1.043.288C5.436 8.693 5.03 7.988 5.03 7.19c0-.422.113-.818.31-1.158 1.136 1.393 2.832 2.31 4.745 2.406-.04-.17-.06-.344-.06-.525 0-1.27 1.03-2.302 2.302-2.302.662 0 1.26.28 1.68.728.525-.103 1.016-.294 1.462-.56-.174.54-.538.99-1.014 1.275.466-.056.91-.18 1.322-.362-.307.462-.698.867-1.147 1.19z" fill="#fff"/></svg>