<svg xmlns="http://www.w3.org/2000/svg" viewBox="0 0 20 20" width="20" height="20"><path d="M5.736 4.62c-.248-.007-.52.088-.808.35-.77.703-1.056 1.22-.37 3.31.687 2.09 2.827 4.33 2.827 4.33s2.242 2.143 4.332 2.83c2.09.685 2.608.402 3.31-.368.703-.77.202-1.438-.168-1.77-.37-.335-1.874-1.406-1.874-1.406s-.65-.35-1.068.102c-.418.45-.502.8-.846.91-.344.11-.475.24-1.195-.21-.045-.028-.092-.057-.137-.087C8.802 12 8 11.197 7.39 10.26c-.03-.045-.06-.09-.087-.135-.452-.72-.317-.853-.207-1.197.108-.344.457-.426.91-.844.45-.418.1-1.07.1-1.07s-1.073-1.504-1.41-1.87c-.207-.23-.545-.516-.958-.523h-.002zm4.545.222c-.176-.002-.353.007-.53.027l.06.564c1.255-.133 2.558.28 3.518 1.24s1.373 2.26 1.24 3.517l.565.062c.15-1.42-.32-2.894-1.404-3.98-.952-.95-2.197-1.426-3.447-1.43h-.002zm-.4 1.25l.057.564c.9-.094 1.832.2 2.518.887.688.688.985 1.622.89 2.52l.563.058c.113-1.063-.237-2.163-1.05-2.977-.814-.813-1.916-1.163-2.98-1.05zm.132 1.242l.058.564c.537-.056 1.092.12 1.502.53.41.41.588.966.532 1.502l.562.06c.075-.7-.153-1.43-.69-1.967-.534-.535-1.264-.763-1.964-.69z" fill="#fff"/></svg>