<svg xmlns="http://www.w3.org/2000/svg" width="20" height="20" viewBox="0 0 20 20"><path d="M6.063 4.156v11.502h4.656c.8 0 1.447-.075 1.967-.22.52-.144.973-.376 1.407-.717.367-.284.69-.628.906-1.062.218-.434.313-.927.313-1.5-.002-.786-.197-1.412-.626-1.875-.428-.462-1.036-.787-1.75-.937V9.28c.497-.206.938-.53 1.22-.968.28-.44.405-.905.405-1.468 0-.486-.108-.942-.312-1.313-.205-.37-.524-.65-.938-.874-.382-.205-.78-.342-1.218-.406-.437-.066-1.06-.094-1.906-.094H6.061zm2.906 2.092h1.374c.262.01.496.042.687.125.204.09.343.273.44.47.095.195.124.375.124.56 0 .254-.038.5-.125.69-.09.193-.268.33-.5.438-.213.1-.365.116-.564.126-.2.01-.566.063-1.062.063H8.97V6.247zm0 4.406h1.78c.307.008.543.09.72.157.29.106.542.237.686.438.144.202.156.49.156.846 0 .28-.035.5-.156.72-.122.218-.33.416-.594.53-.3.13-.553.177-.843.187-.29.01-.81.033-1.564.033H8.97v-2.909z" fill="#fff"/></svg>