<svg xmlns="http://www.w3.org/2000/svg" width="20" height="20" viewBox="0 0 20 20"><path d="M10.008 4.398c-.78 0-1.522.156-2.197.44-.674.282-1.28.69-1.79 1.2-.51.505-.926 1.11-1.21 1.78-.286.67-.445 1.406-.445 2.18 0 1.057.298 2.048.81 2.89l-1.02 3.003 3.124-.99c.81.444 1.74.696 2.73.696.78 0 1.52-.157 2.195-.44.675-.283 1.283-.694 1.793-1.2.51-.507.923-1.108 1.21-1.778.285-.67.444-1.407.444-2.18 0-.773-.156-1.51-.44-2.18-.286-.67-.702-1.274-1.212-1.78-.51-.508-1.118-.917-1.793-1.2-.675-.283-1.417-.44-2.197-.44h-.002zm.002.887h.002c.655 0 1.276.135 1.843.373.568.24 1.078.584 1.508 1.01.43.426.778.935 1.018 1.498s.376 1.18.376 1.83c0 .65-.133 1.267-.373 1.83-.24.563-.592 1.07-1.022 1.496-.426.426-.937.772-1.505 1.01-.567.24-1.19.37-1.843.37-.964 0-1.864-.286-2.614-.778l-1.822.58.594-1.748c-.568-.776-.902-1.73-.902-2.76 0-.65.13-1.267.373-1.83.24-.563.586-1.072 1.016-1.498.43-.426.94-.77 1.508-1.01.565-.238 1.192-.373 1.846-.373zm-1.9 2.152c-.092 0-.243.033-.37.17-.126.138-.482.47-.482 1.145s.494 1.326.564 1.418c.035.046.276.425.682.865.406.437.98.932 1.682 1.207 1.406.55 1.406.368 1.66.346.253-.023.816-.332.93-.652.116-.32.12-.596.085-.653-.034-.057-.126-.09-.264-.16-.14-.07-.82-.402-.946-.447-.126-.046-.218-.07-.31.066-.092.14-.358.45-.438.54-.08.094-.16.104-.3.034-.14-.068-.584-.21-1.114-.68-.41-.362-.687-.813-.77-.95-.08-.138-.01-.21.06-.28.063-.06.14-.16.21-.24.07-.08.09-.137.137-.227.046-.093.023-.173-.014-.243-.033-.067-.308-.742-.424-1.017-.115-.275-.23-.23-.31-.23-.082 0-.175-.01-.267-.01v-.003z" fill="#fff"/></svg>